<svg width="27" height="17" viewBox="0 0 27 17" fill="none" xmlns="http://www.w3.org/2000/svg">
<g clip-path="url(#clip0_656_63)">
<path d="M1.55905 0.666992H0V16.667H1.55905V0.666992Z" fill="white"/>
<path d="M4.59764 0.666992H3.07812V16.667H4.59764V0.666992Z" fill="white"/>
<path d="M6.75689 0.666992H4.91797V16.667H6.75689V0.666992Z" fill="white"/>
<path d="M8.68899 0.666992H7.76953V16.667H8.68899V0.666992Z" fill="white"/>
<path d="M12.9807 0.666992H10.582V16.667H12.9807V0.666992Z" fill="white"/>
<path d="M15.8355 0.666992H14.1562V16.667H15.8355V0.666992Z" fill="white"/>
<path d="M18.6642 0.666992H17.4648V16.667H18.6642V0.666992Z" fill="white"/>
<path d="M21.5237 0.666992H19.125V16.667H21.5237V0.666992Z" fill="white"/>
<path d="M22.8618 0.666992H22.0625V16.667H22.8618V0.666992Z" fill="white"/>
<path d="M25.3479 0.666992H24.668V16.667H25.3479V0.666992Z" fill="white"/>
<path d="M26.6682 0.666992H25.9883V16.667H26.6682V0.666992Z" fill="white"/>
<path d="M9.96897 0.666992H9.28906V16.667H9.96897V0.666992Z" fill="white"/>
</g>
<defs>
<clipPath id="clip0_656_63">
<rect width="26.6667" height="16" fill="white" transform="translate(0 0.666992)"/>
</clipPath>
</defs>
</svg>
