<svg width="30" height="30" viewBox="0 0 30 30" fill="none" xmlns="http://www.w3.org/2000/svg">
<g clip-path="url(#clip0_20_1165)">
<path d="M15 19.6875C17.5888 19.6875 19.6875 17.5888 19.6875 15C19.6875 12.4112 17.5888 10.3125 15 10.3125C12.4112 10.3125 10.3125 12.4112 10.3125 15C10.3125 17.5888 12.4112 19.6875 15 19.6875Z" stroke="white" stroke-linecap="round" stroke-linejoin="round"/>
<path d="M21.5625 24.375C19.7801 25.5598 17.3004 26.25 15 26.25C12.775 26.25 10.5999 25.5902 8.74984 24.354C6.89979 23.1179 5.45785 21.3609 4.60636 19.3052C3.75487 17.2495 3.53209 14.9875 3.96617 12.8052C4.40025 10.623 5.47171 8.61839 7.04505 7.04505C8.61839 5.47171 10.623 4.40025 12.8052 3.96617C14.9875 3.53209 17.2495 3.75487 19.3052 4.60636C21.3609 5.45785 23.1179 6.89979 24.354 8.74984C25.5902 10.5999 26.25 12.775 26.25 15C26.25 17.5887 25.3125 19.6875 22.9688 19.6875C20.625 19.6875 19.6875 17.5887 19.6875 15V10.3125" stroke="white" stroke-linecap="round" stroke-linejoin="round"/>
</g>
<defs>
<clipPath id="clip0_20_1165">
<rect width="30" height="30" fill="white"/>
</clipPath>
</defs>
</svg>
