<svg width="38" height="15" viewBox="0 0 38 15" fill="none" xmlns="http://www.w3.org/2000/svg">
<g clip-path="url(#clip0_656_157)">
<path d="M17.8996 7.12268V11.4002H16.5547V0.837604H20.12C20.5454 0.828766 20.9684 0.90488 21.3641 1.06145C21.7598 1.21803 22.1202 1.45193 22.4244 1.74949C22.7296 2.03604 22.9729 2.38209 23.1392 2.76631C23.3055 3.15052 23.3913 3.56476 23.3913 3.98342C23.3913 4.40208 23.3055 4.81631 23.1392 5.20053C22.9729 5.58475 22.7296 5.93079 22.4244 6.21735C22.1192 6.51264 21.7583 6.74415 21.3626 6.89832C20.9669 7.05248 20.5445 7.12621 20.12 7.11522H17.8996V7.12268ZM17.8996 2.13868V5.82163H20.148C20.3913 5.82372 20.6326 5.77782 20.8582 5.68656C21.0837 5.5953 21.289 5.46045 21.4624 5.28977C21.6358 5.11908 21.7737 4.9159 21.8685 4.69182C21.9633 4.46774 22.013 4.22716 22.0147 3.98387C22.0155 3.74526 21.9681 3.50896 21.8754 3.28909C21.7827 3.06921 21.6466 2.87029 21.4752 2.70427C21.3065 2.52094 21.1003 2.37604 20.8707 2.27942C20.6411 2.18279 20.3933 2.13672 20.1443 2.14429H17.8959L17.8996 2.13868Z" fill="white"/>
<path d="M26.9104 3.93404C27.7699 3.88619 28.6142 4.17512 29.2643 4.73952C29.5563 5.02484 29.7841 5.36909 29.9327 5.74938C30.0812 6.12967 30.1471 6.53725 30.1258 6.94496V11.4007H28.8442V10.3964H28.7882C28.5585 10.7787 28.2326 11.0941 27.8431 11.3113C27.4535 11.5284 27.0138 11.6397 26.5679 11.634C25.8414 11.6583 25.1328 11.4058 24.5854 10.9275C24.3297 10.7103 24.1255 10.4391 23.9873 10.1334C23.8491 9.82774 23.7806 9.49519 23.7866 9.15978C23.7742 8.8173 23.844 8.47683 23.9901 8.16686C24.1362 7.85688 24.3545 7.58642 24.6265 7.37804C25.2752 6.90683 26.0658 6.67228 26.8665 6.71351C27.5504 6.68612 28.2294 6.83968 28.835 7.1587V6.84789C28.8374 6.61905 28.789 6.39252 28.6933 6.18463C28.5976 5.97675 28.4569 5.7927 28.2815 5.64576C27.9251 5.31994 27.4575 5.14294 26.9748 5.1511C26.6203 5.14284 26.2698 5.22718 25.9578 5.39577C25.6459 5.56435 25.3832 5.81136 25.1958 6.11243L24.0124 5.36577C24.3304 4.89691 24.7646 4.51855 25.2725 4.26761C25.7805 4.01667 26.3448 3.90173 26.9104 3.93404ZM25.1735 9.17937C25.1716 9.35185 25.2114 9.52223 25.2894 9.67609C25.3674 9.82995 25.4813 9.96274 25.6215 10.0632C25.918 10.2982 26.2867 10.4232 26.6649 10.417C26.9467 10.4166 27.2256 10.3601 27.4854 10.2508C27.7451 10.1415 27.9805 9.98164 28.1778 9.78045C28.3875 9.59226 28.5551 9.36199 28.6698 9.10469C28.7844 8.84738 28.8435 8.56881 28.8433 8.28711C28.3336 7.92586 27.7161 7.74879 27.0924 7.78498C26.6064 7.76806 26.1277 7.90669 25.726 8.1807C25.5589 8.28896 25.421 8.43671 25.3245 8.61088C25.2279 8.78504 25.1767 8.98027 25.1735 9.17937Z" fill="white"/>
<path d="M37.437 4.16797L32.9569 14.5746H31.57L33.237 10.9346L30.2773 4.16797H31.7417L33.8716 9.3573H33.8996L35.9735 4.16797H37.437Z" fill="white"/>
<path d="M12.551 6.25941C12.5515 5.83257 12.514 5.40653 12.439 4.98633H6.80078V7.31966H10.0479C9.98603 7.69854 9.84721 8.06073 9.63997 8.38387C9.43273 8.70701 9.16146 8.98424 8.8429 9.19846V10.7123H10.7759C11.3641 10.1336 11.8256 9.43886 12.1312 8.67232C12.4367 7.90578 12.5797 7.08412 12.551 6.25941Z" fill="#4285F4"/>
<path d="M8.84646 9.19921C8.38064 9.50111 7.85164 9.69189 7.30035 9.75679C6.74905 9.8217 6.19022 9.759 5.66701 9.57353C5.14381 9.38806 4.67024 9.0848 4.28291 8.68717C3.89557 8.28953 3.60482 7.80816 3.43314 7.28027H1.44141V8.83801C1.9365 9.83789 2.70074 10.6798 3.64816 11.2691C4.59558 11.8584 5.6886 12.1717 6.80434 12.1738C8.26808 12.2149 9.69137 11.6904 10.7785 10.7094L8.84646 9.19921Z" fill="#34A853"/>
<path d="M3.24591 6.12208C3.24584 5.7285 3.30888 5.33745 3.43259 4.96381V3.40234H1.43897C1.01921 4.24752 0.800781 5.1784 0.800781 6.12208C0.800781 7.06576 1.01921 7.99663 1.43897 8.84181L3.43259 7.28128C3.30878 6.90735 3.24574 6.51597 3.24591 6.12208Z" fill="#FABB05"/>
<path d="M6.80246 2.46349C7.65981 2.45012 8.48761 2.77663 9.105 3.37164L10.8177 1.64403C9.73604 0.61604 8.29646 0.0499042 6.80434 0.0657537C5.68863 0.0679138 4.59562 0.381266 3.64822 0.970547C2.70082 1.55983 1.93658 2.40168 1.44141 3.40149L3.43499 4.96202C3.66423 4.24554 4.11249 3.61905 4.71662 3.17081C5.32075 2.72257 6.0503 2.47518 6.80246 2.46349Z" fill="#E94235"/>
</g>
<defs>
<clipPath id="clip0_656_157">
<rect width="36.6389" height="14.5068" fill="white" transform="translate(0.800781 0.0664062)"/>
</clipPath>
</defs>
</svg>
