<svg width="30" height="30" viewBox="0 0 30 30" fill="none" xmlns="http://www.w3.org/2000/svg">
<g clip-path="url(#clip0_20_1169)">
<path d="M18.75 4.6875C20.3268 5.10272 21.7651 5.929 22.918 7.08196C24.071 8.23492 24.8973 9.67323 25.3125 11.25" stroke="white" stroke-linecap="round" stroke-linejoin="round"/>
<path d="M17.8125 8.4375C19.7484 8.95547 21.0445 10.2516 21.5625 12.1875" stroke="white" stroke-linecap="round" stroke-linejoin="round"/>
<path d="M19.2645 17.0315C19.3943 16.9452 19.5436 16.8925 19.6989 16.8784C19.8542 16.8643 20.0106 16.8891 20.1539 16.9507L25.6805 19.4269C25.8667 19.5065 26.0222 19.6442 26.1236 19.8196C26.225 19.9949 26.2669 20.1984 26.243 20.3995C26.0609 21.7601 25.3909 23.0083 24.3575 23.9119C23.3241 24.8155 21.9977 25.3131 20.625 25.312C16.3981 25.312 12.3443 23.6329 9.35549 20.644C6.36663 17.6552 4.6875 13.6014 4.6875 9.37452C4.68645 8.00179 5.184 6.67539 6.08761 5.64202C6.99123 4.60864 8.2394 3.93861 9.6 3.75655C9.80113 3.73265 10.0046 3.77454 10.1799 3.87594C10.3553 3.97734 10.4931 4.1328 10.5727 4.31905L13.0488 9.8503C13.1097 9.99236 13.1344 10.1473 13.1209 10.3012C13.1075 10.4552 13.0561 10.6034 12.9715 10.7327L10.4672 13.7105C10.3784 13.8445 10.3258 13.9993 10.3147 14.1597C10.3036 14.3201 10.3344 14.4807 10.4039 14.6257C11.373 16.6097 13.4238 18.6358 15.4137 19.5956C15.5594 19.6648 15.7207 19.6949 15.8816 19.6828C16.0425 19.6706 16.1975 19.6168 16.3313 19.5265L19.2645 17.0315Z" stroke="white" stroke-linecap="round" stroke-linejoin="round"/>
</g>
<defs>
<clipPath id="clip0_20_1169">
<rect width="30" height="30" fill="white"/>
</clipPath>
</defs>
</svg>
