<svg width="30" height="30" viewBox="0 0 30 30" fill="none" xmlns="http://www.w3.org/2000/svg">
<g clip-path="url(#clip0_20_1171)">
<path d="M5.29102 26.966C5.15447 27.0809 4.98797 27.1544 4.81109 27.1779C4.63421 27.2015 4.45428 27.174 4.29246 27.0988C4.13064 27.0236 3.99363 26.9038 3.89754 26.7535C3.80145 26.6031 3.75026 26.4284 3.75 26.25V7.5C3.75 7.25136 3.84877 7.0129 4.02459 6.83709C4.2004 6.66127 4.43886 6.5625 4.6875 6.5625H25.3125C25.5611 6.5625 25.7996 6.66127 25.9754 6.83709C26.1512 7.0129 26.25 7.25136 26.25 7.5V22.5C26.25 22.7486 26.1512 22.9871 25.9754 23.1629C25.7996 23.3387 25.5611 23.4375 25.3125 23.4375H9.66797C9.44713 23.4376 9.2334 23.5156 9.06445 23.6578L5.29102 26.966Z" stroke="white" stroke-linecap="round" stroke-linejoin="round"/>
<path d="M15.9062 15C15.9062 15.5005 15.5005 15.9062 15 15.9062C14.4995 15.9062 14.0938 15.5005 14.0938 15C14.0938 14.4995 14.4995 14.0938 15 14.0938C15.5005 14.0938 15.9062 14.4995 15.9062 15Z" fill="white" stroke="white"/>
<path d="M10.75 15C10.75 15.5005 10.3443 15.9062 9.84375 15.9062C9.34324 15.9062 8.9375 15.5005 8.9375 15C8.9375 14.4995 9.34324 14.0938 9.84375 14.0938C10.3443 14.0938 10.75 14.4995 10.75 15Z" fill="white" stroke="white"/>
<path d="M21.0625 15C21.0625 15.5005 20.6568 15.9062 20.1562 15.9062C19.6557 15.9062 19.25 15.5005 19.25 15C19.25 14.4995 19.6557 14.0938 20.1562 14.0938C20.6568 14.0938 21.0625 14.4995 21.0625 15Z" fill="white" stroke="white"/>
</g>
<defs>
<clipPath id="clip0_20_1171">
<rect width="30" height="30" fill="white"/>
</clipPath>
</defs>
</svg>
