<svg width="51" height="29" viewBox="0 0 51 29" fill="none" xmlns="http://www.w3.org/2000/svg">
<path d="M49.1934 13.0303L40.4417 25.483C40.3353 25.6343 40.2239 25.7821 40.1075 25.9265C39.4048 26.7949 38.5335 27.5119 37.5462 28.0344C36.5588 28.5568 35.4758 28.8738 34.3626 28.9662C33.2494 29.0587 32.1289 28.9247 31.0689 28.5723C30.0089 28.2199 29.0313 27.6564 28.195 26.9158C27.6714 26.4506 27.1899 25.9307 26.6946 25.4344L25.3489 24.0882L24.0031 25.4381C23.5083 25.933 23.0268 26.4529 22.5028 26.9195C21.6667 27.6607 20.6891 28.2247 19.6289 28.5774C18.5688 28.9301 17.4481 29.0642 16.3347 28.9716C15.2212 28.879 14.1381 28.5616 13.1508 28.0386C12.1635 27.5157 11.2924 26.7979 10.5902 25.9289C10.4742 25.7847 10.363 25.6369 10.2565 25.4854L1.50712 13.0326C-1.12046 9.29443 -0.223767 4.13509 3.50744 1.50658C6.84053 -0.842316 11.3106 -0.372906 14.0969 2.41948L16.8037 5.12484L18.7656 3.16109L19.4887 2.43383C20.9611 0.955645 22.9378 0.0885794 25.0226 0.00642044C27.1074 -0.0757385 29.1462 0.63308 30.7304 1.99081C31.0545 2.27088 31.354 2.58151 31.6563 2.88472L33.895 5.12622L36.5999 2.42133C39.3872 -0.372906 43.8563 -0.842316 47.1908 1.50658C50.922 4.13509 51.8201 9.29443 49.1934 13.0303Z" fill="white"/>
</svg>
