<svg width="39" height="22" viewBox="0 0 39 22" fill="none" xmlns="http://www.w3.org/2000/svg">
<path d="M37.8425 9.88637L31.1104 19.3362C31.029 19.4513 30.9428 19.5634 30.8535 19.6724C30.1672 20.5115 29.2631 21.1676 28.247 21.5625C27.1533 21.9875 25.9445 22.1073 24.7873 21.9025C23.6419 21.7 22.5616 21.1861 21.6904 20.4235C21.2877 20.0703 20.9171 19.6762 20.5364 19.3007C20.1917 18.9599 19.8462 18.6199 19.5015 18.2791C19.1567 18.6199 18.8112 18.9599 18.4665 19.3007C18.0858 19.6762 17.7152 20.0711 17.3125 20.4235C16.4413 21.1861 15.361 21.7 14.2156 21.9025C13.0702 22.1049 11.8496 21.9875 10.7559 21.5625C9.73982 21.1676 8.83573 20.5115 8.14944 19.6724C8.06013 19.5634 7.97473 19.4506 7.89247 19.3362L1.15804 9.88637C-0.861668 7.05196 -0.171459 3.13726 2.69828 1.14282C5.26404 -0.639116 8.70098 -0.283656 10.8445 1.83597L12.9253 3.88837C13.4282 3.3915 13.9312 2.8954 14.4342 2.39852C14.6206 2.21461 14.8063 2.0307 14.9928 1.84679C15.5388 1.30819 16.1781 0.867727 16.8824 0.554767C18.3514 -0.098971 20.0475 -0.175472 21.5713 0.341491C22.3273 0.59804 23.0332 0.996002 23.6396 1.50987C23.8903 1.72238 24.119 1.95806 24.3525 2.18834C24.9135 2.74239 26.0612 3.876 26.0745 3.88914L28.1553 1.83674C30.2988 -0.28211 33.7365 -0.638343 36.3015 1.14359C39.172 3.13804 39.8615 7.05274 37.8417 9.88715" fill="#004650"/>
</svg>
