<svg width="30" height="30" viewBox="0 0 30 30" fill="none" xmlns="http://www.w3.org/2000/svg">
<g clip-path="url(#clip0_20_1167)">
<path d="M8.4375 12.1875C8.4375 11.1929 8.83259 10.2391 9.53585 9.53585C10.2391 8.83259 11.1929 8.4375 12.1875 8.4375L14.0625 12.1875L12.6188 14.352C13.1914 15.7204 14.2796 16.8086 15.648 17.3813L17.8125 15.9375L21.5625 17.8125C21.5625 18.8071 21.1674 19.7609 20.4641 20.4641C19.7609 21.1674 18.8071 21.5625 17.8125 21.5625C15.3261 21.5625 12.9415 20.5748 11.1834 18.8166C9.42522 17.0585 8.4375 14.6739 8.4375 12.1875Z" stroke="white" stroke-linecap="round" stroke-linejoin="round"/>
<path d="M9.36573 24.7369C11.7289 26.1045 14.5087 26.5661 17.187 26.0356C19.8654 25.505 22.2593 24.0186 23.9226 21.8533C25.5859 19.688 26.405 16.9918 26.2271 14.2672C26.0493 11.5426 24.8866 8.97572 22.956 7.04506C21.0253 5.1144 18.4584 3.95176 15.7338 3.77391C13.0093 3.59605 10.313 4.41512 8.14773 6.0784C5.98247 7.74169 4.49599 10.1357 3.96544 12.814C3.43489 15.4923 3.89649 18.2722 5.26417 20.6353L3.79815 25.0122C3.74306 25.1774 3.73507 25.3547 3.77506 25.5242C3.81506 25.6936 3.90146 25.8486 4.02459 25.9717C4.14771 26.0949 4.3027 26.1813 4.47217 26.2213C4.64164 26.2613 4.8189 26.2533 4.98409 26.1982L9.36573 24.7369Z" stroke="white" stroke-linecap="round" stroke-linejoin="round"/>
</g>
<defs>
<clipPath id="clip0_20_1167">
<rect width="30" height="30" fill="white"/>
</clipPath>
</defs>
</svg>
